<?xml version="1.0" encoding="utf-8"?>
<!-- Generator: Adobe Illustrator 26.5.2, SVG Export Plug-In . SVG Version: 6.00 Build 0)  -->
<svg version="1.1" id="Capa_1" xmlns:xodm="http://www.corel.com/coreldraw/odm/2003"
	 xmlns="http://www.w3.org/2000/svg" xmlns:xlink="http://www.w3.org/1999/xlink" x="0px" y="0px" viewBox="0 0 916 916"
	 style="enable-background:new 0 0 916 916;" xml:space="preserve">
<style type="text/css">
	<!-- .st0{fill-rule:evenodd;clip-rule:evenodd;fill:#8CC9A9;} -->
	.st0 {
		fill-rule:evenodd;
		clip-rule:evenodd;
            fill: black;
        }
        @media (prefers-color-scheme: dark) {
            .st0 { fill-rule:evenodd;
			clip-rule:evenodd;
			fill: white; }
        }
</style>
<g transform="translate(0.000000,800.000000) scale(0.100000,-0.100000)" id="Capa_x0020_1" 
>
	<path class="st0" d="M125 7938 c-3 -7 -4 -278 -3 -603 l3 -590 1060 -5 c583 -3 1066 -9
1073 -13 9 -6 12 -255 12 -1187 0 -1011 2 -1179 14 -1183 19 -8 33 11 39 53
13 85 46 182 93 272 14 26 29 75 33 110 11 74 34 141 61 176 11 14 20 33 20
43 0 10 11 44 25 75 14 31 23 60 20 64 -3 5 6 22 20 38 14 16 25 39 25 50 0
11 11 34 25 50 14 17 25 37 25 46 0 8 10 41 22 73 12 32 22 66 23 76 1 9 13
30 27 45 14 15 28 34 32 42 15 32 34 62 56 85 12 13 24 36 26 51 1 14 12 36
23 48 12 12 21 32 21 43 0 12 11 35 25 51 14 17 25 39 25 50 0 11 7 25 15 32
8 6 30 40 49 74 20 35 42 69 51 76 9 7 31 41 51 76 19 34 42 68 50 75 9 7 20
22 25 34 13 29 30 56 62 93 15 18 27 37 27 43 0 5 30 43 68 84 84 92 102 115
146 196 l36 66 -2 599 -3 599 -1698 3 c-1353 2 -1699 0 -1702 -10z"/>
<path class="st0" d="M6258 7935 c-26 -7 -53 -17 -60 -22 -7 -4 -65 -11 -128 -14 -63 -4
-133 -12 -155 -19 -22 -6 -71 -16 -110 -20 -75 -9 -109 -17 -195 -48 -92 -33
-133 -45 -175 -53 -84 -16 -101 -22 -122 -42 -13 -11 -31 -21 -40 -22 -10 -1
-44 -11 -76 -23 -32 -12 -65 -22 -73 -22 -9 0 -29 -11 -46 -25 -16 -14 -39
-25 -51 -25 -11 0 -31 -10 -43 -21 -13 -12 -35 -23 -50 -25 -14 -1 -36 -12
-48 -23 -12 -12 -30 -21 -40 -21 -10 0 -31 -11 -48 -25 -16 -14 -40 -25 -53
-25 -12 0 -28 -7 -35 -16 -8 -8 -43 -33 -79 -55 -36 -22 -86 -55 -111 -74 -25
-18 -49 -34 -55 -35 -5 0 -26 -14 -45 -30 -19 -17 -39 -30 -45 -30 -6 0 -29
-18 -50 -40 -21 -22 -44 -40 -51 -40 -6 0 -18 -7 -25 -16 -8 -9 -31 -28 -52
-41 -48 -30 -606 -587 -641 -640 -53 -79 -60 -89 -92 -123 -17 -19 -39 -49
-47 -65 -8 -17 -24 -39 -36 -49 -12 -11 -21 -24 -21 -31 0 -6 -18 -29 -40 -50
-22 -21 -40 -44 -40 -50 0 -6 -11 -22 -25 -35 -14 -13 -25 -34 -25 -46 0 -12
-11 -36 -25 -52 -14 -17 -25 -39 -25 -50 0 -11 -10 -33 -23 -49 -13 -15 -34
-46 -47 -68 -13 -22 -34 -53 -47 -68 -13 -16 -23 -38 -23 -49 0 -11 -11 -33
-25 -50 -14 -16 -25 -40 -25 -52 0 -13 -9 -31 -20 -41 -11 -10 -20 -26 -20
-35 0 -9 -11 -31 -25 -50 -14 -19 -25 -42 -25 -53 0 -11 -11 -32 -25 -49 -14
-16 -25 -40 -25 -52 0 -13 -9 -31 -20 -41 -11 -10 -20 -26 -20 -35 0 -9 -11
-31 -25 -50 -14 -19 -25 -39 -25 -46 0 -6 -9 -32 -20 -58 -12 -25 -29 -76 -39
-113 -23 -85 -38 -126 -68 -184 -12 -26 -23 -57 -23 -69 0 -12 -8 -34 -18 -48
-21 -31 -58 -152 -77 -247 -10 -51 -36 -137 -60 -200 -13 -33 -29 -85 -35
-115 -6 -30 -16 -71 -21 -90 -4 -19 -8 -37 -8 -40 0 -3 -5 -18 -12 -35 -6 -16
-15 -61 -19 -100 -5 -38 -13 -88 -20 -110 -7 -22 -15 -71 -20 -110 -4 -38 -12
-81 -17 -95 -24 -58 -33 -100 -33 -149 0 -28 -7 -65 -15 -81 -9 -17 -13 -30
-11 -30 3 0 0 -12 -6 -27 -7 -16 -15 -91 -18 -168 -4 -77 -13 -158 -19 -180
-7 -22 -16 -60 -20 -85 -4 -25 -12 -54 -17 -65 -6 -11 -16 -47 -23 -80 -7 -33
-17 -78 -23 -100 -7 -22 -13 -46 -14 -54 -1 -7 -11 -36 -22 -65 -31 -84 -63
-179 -69 -206 -3 -14 -14 -35 -25 -46 -11 -12 -21 -34 -22 -48 -2 -15 -14 -38
-26 -51 -23 -24 -34 -41 -65 -103 -10 -17 -21 -32 -26 -32 -5 0 -17 -17 -28
-38 -21 -40 -380 -402 -399 -402 -6 0 -23 -11 -38 -25 -15 -14 -36 -25 -47
-25 -10 0 -32 -11 -49 -25 -16 -14 -38 -25 -48 -25 -10 0 -39 -9 -65 -20 -26
-11 -54 -20 -64 -20 -9 0 -32 -11 -51 -25 -19 -14 -43 -25 -55 -25 -12 0 -26
-5 -32 -11 -5 -5 -46 -14 -89 -19 -43 -5 -97 -15 -119 -21 -27 -9 -134 -14
-332 -16 -227 -3 -293 -6 -302 -17 -8 -9 -10 -177 -9 -582 l3 -569 402 -3
c330 -2 411 0 455 13 29 8 73 20 98 26 25 6 63 16 85 21 22 6 50 14 63 19 13
5 36 9 52 9 16 0 41 5 57 11 15 6 37 13 48 15 11 2 43 12 70 22 90 34 180 64
205 69 14 3 35 15 47 26 12 11 34 21 49 23 14 1 36 12 48 23 12 12 31 21 43
21 11 0 32 11 47 25 15 14 37 25 48 25 12 0 32 10 44 21 13 12 34 23 48 24 28
3 60 26 135 93 27 23 53 42 59 42 6 0 26 13 44 30 18 16 37 30 43 30 15 0 383
376 422 431 18 25 33 50 34 55 0 5 16 29 34 54 19 25 48 68 64 96 17 28 44 68
61 89 34 43 197 367 204 405 2 14 13 50 25 80 12 30 21 63 21 72 0 9 11 30 25
46 14 17 25 36 25 43 0 8 10 39 21 69 31 80 40 117 49 195 4 39 15 99 25 135
10 36 24 90 32 120 8 30 19 65 24 78 5 13 9 79 9 148 0 70 5 134 11 145 21 40
39 131 39 199 0 38 4 79 9 92 17 46 31 94 37 133 3 22 9 47 13 55 4 8 13 42
20 75 13 65 38 156 52 193 5 13 9 44 9 69 0 48 6 71 45 183 13 36 29 90 35
120 19 92 51 189 66 201 8 6 14 20 14 29 0 10 11 32 25 48 14 17 25 39 25 50
0 12 11 47 23 79 29 70 66 179 73 213 3 14 14 34 25 46 10 11 19 28 19 38 0
10 11 31 25 48 14 16 25 39 25 51 0 11 9 30 20 42 12 12 23 35 26 51 3 16 15
39 26 51 21 22 39 51 56 88 6 11 19 29 31 39 11 11 21 29 21 42 0 12 10 35 23
51 35 44 67 92 67 99 0 4 12 22 26 41 14 18 27 42 29 54 2 11 16 34 30 50 14
17 25 35 25 41 0 5 24 35 54 66 52 54 74 82 130 162 38 55 435 440 501 487 33
23 72 54 87 68 15 14 31 25 35 25 4 0 26 14 47 30 22 17 47 30 57 30 9 0 22 7
29 15 6 7 37 28 68 46 31 17 70 42 85 55 16 13 38 24 49 24 12 0 29 7 39 16
17 15 118 56 184 74 28 7 81 25 215 73 30 10 66 21 79 23 13 3 32 9 42 14 10
6 38 10 63 10 44 0 123 17 179 39 35 14 326 14 347 1 13 -8 15 -190 18 -1525
1 -1040 -1 -1522 -8 -1535 -10 -18 -22 -20 -150 -20 -134 0 -218 -12 -269 -39
-11 -6 -40 -11 -65 -11 -25 0 -71 -7 -103 -16 -66 -18 -165 -42 -205 -51 -15
-3 -35 -14 -44 -24 -9 -10 -27 -19 -40 -19 -12 0 -36 -11 -52 -25 -17 -14 -38
-25 -47 -25 -9 0 -30 -11 -47 -25 -16 -14 -40 -25 -53 -25 -12 0 -28 -7 -36
-16 -7 -8 -25 -22 -40 -30 -15 -8 -41 -26 -56 -40 -15 -15 -44 -37 -63 -49
-19 -12 -41 -30 -49 -39 -7 -9 -19 -16 -25 -16 -14 0 -605 -591 -640 -640 -14
-19 -37 -52 -51 -73 -35 -52 -359 -373 -405 -402 -21 -13 -41 -29 -45 -35 -3
-5 -15 -10 -27 -10 -11 0 -33 -11 -50 -25 -16 -14 -38 -25 -49 -25 -10 0 -40
-16 -65 -36 -26 -19 -64 -44 -84 -54 -20 -10 -42 -26 -49 -34 -8 -9 -22 -16
-33 -16 -11 0 -29 -5 -41 -12 -12 -6 -51 -11 -87 -10 -58 2 -131 -13 -198 -39
-13 -5 -36 -9 -53 -9 -39 0 -100 -32 -118 -62 -28 -45 -61 -118 -61 -135 0
-10 -9 -29 -20 -43 -11 -14 -20 -32 -20 -41 0 -9 -11 -29 -25 -45 -14 -16 -25
-37 -25 -47 0 -22 -73 -151 -105 -187 -13 -14 -37 -51 -54 -82 -18 -31 -39
-62 -48 -69 -8 -7 -19 -22 -24 -34 -42 -89 -86 -142 -309 -365 -219 -219 -274
-266 -360 -306 -8 -4 -30 -20 -48 -36 -18 -15 -37 -28 -42 -28 -5 0 -19 -18
-30 -40 -17 -33 -20 -56 -18 -123 l3 -82 569 -3 c407 -1 573 1 582 9 11 9 14
65 16 253 l3 241 275 5 c203 4 281 8 298 18 13 8 26 11 29 8 3 -3 18 1 34 9
15 8 48 15 73 15 63 0 156 26 178 50 10 11 27 20 36 20 10 0 47 11 82 25 35
14 71 25 80 25 8 0 23 9 33 20 9 11 26 20 38 20 12 0 34 11 51 25 16 14 40 25
52 25 13 0 31 9 42 21 10 11 46 36 80 55 33 19 69 43 79 54 10 11 23 20 29 20
6 0 238 227 516 505 278 278 510 505 516 505 6 0 19 9 30 21 10 12 32 28 49
36 16 9 49 32 71 52 71 61 116 91 139 91 12 0 30 9 40 20 10 11 27 20 38 20
12 0 31 9 43 21 22 21 59 33 146 49 26 5 56 14 68 20 12 6 24 9 27 6 3 -3 18
1 34 9 35 18 135 20 146 3 4 -7 10 -521 13 -1143 l5 -1130 600 0 600 0 0 3945
0 3945 -785 1 c-613 1 -795 -1 -832 -11z"/>
</g>
</svg>